<svg xmlns="http://www.w3.org/2000/svg" width="24" height="24"><path d="M 2 4 C 2 2.343 3.343 1 5 1 L 19 1 C 20.657 1 22 2.343 22 4 L 22 20 C 22 21.657 20.657 23 19 23 L 5 23 C 3.343 23 2 21.657 2 20 Z M 4 19 C 4 20.105 4.895 21 6 21 L 18 21 C 19.105 21 20 20.105 20 19 L 20 5 C 20 3.895 19.105 3 18 3 L 6 3 C 4.895 3 4 3.895 4 5 Z" fill="rgb(88, 97, 116)"></path><path d="M 8 11 C 8.552 11 9 11.448 9 12 C 9 12.552 8.552 13 8 13 C 7.448 13 7 12.552 7 12 C 7 11.448 7.448 11 8 11 Z" fill="rgb(88, 97, 116)"></path><path d="M 12 11 C 12.552 11 13 11.448 13 12 C 13 12.552 12.552 13 12 13 C 11.448 13 11 12.552 11 12 C 11 11.448 11.448 11 12 11 Z" fill="rgb(88, 97, 116)"></path><path d="M 16 11 C 16.552 11 17 11.448 17 12 C 17 12.552 16.552 13 16 13 C 15.448 13 15 12.552 15 12 C 15 11.448 15.448 11 16 11 Z" fill="rgb(88, 97, 116)"></path></svg>