<svg xmlns="http://www.w3.org/2000/svg" width="24" height="24"><path d="M 0 0 L 24 0 L 24 24 L 0 24 Z" fill="transparent"></path><path d="M 1 16 C 1 14.343 2.343 13 4 13 L 20 13 C 21.657 13 23 14.343 23 16 L 23 20 C 23 21.657 21.657 23 20 23 L 4 23 C 2.343 23 1 21.657 1 20 Z M 3 20 C 3 20.552 3.448 21 4 21 L 20 21 C 20.552 21 21 20.552 21 20 L 21 16 C 21 15.448 20.552 15 20 15 L 4 15 C 3.448 15 3 15.448 3 16 Z" fill="rgb(88, 97, 116)"></path><path d="M 4 5 C 4 4.448 4.448 4 5 4 L 5 4 C 5.552 4 6 4.448 6 5 L 6 11 C 6 11.552 5.552 12 5 12 L 5 12 C 4.448 12 4 11.552 4 11 Z" fill="rgb(88, 97, 116)"></path><path d="M 12 6 C 14.209 6 16 7.791 16 10" fill="transparent" stroke-width="2" stroke="rgb(88, 97, 116)" stroke-linecap="round" stroke-linejoin="round"></path><path d="M 12 2 C 16.418 2 20 5.582 20 10" fill="transparent" stroke-width="2" stroke="rgb(88, 97, 116)" stroke-linecap="round" stroke-linejoin="round"></path></svg>