<svg xmlns="http://www.w3.org/2000/svg" width="24" height="23"><path d="M 4 10 C 2.895 10 2 9.105 2 8 L 2 4 C 2 2.895 2.895 2 4 2 L 20 2 C 21.105 2 22 2.895 22 4 L 22 8 C 22 9.105 21.105 10 20 10 Z" fill="transparent" stroke-width="2" stroke="rgb(88, 97, 116)" stroke-linecap="round" stroke-linejoin="round"></path><path d="M 4 22 C 2.895 22 2 21.105 2 20 L 2 16 C 2 14.895 2.895 14 4 14 L 20 14 C 21.105 14 22 14.895 22 16 L 22 20 C 22 21.105 21.105 22 20 22 Z" fill="transparent" stroke-width="2" stroke="rgb(88, 97, 116)" stroke-linecap="round" stroke-linejoin="round"></path><path d="M 5 6 C 5 5.448 5.448 5 6 5 L 14 5 C 14.552 5 15 5.448 15 6 L 15 6 C 15 6.552 14.552 7 14 7 L 6 7 C 5.448 7 5 6.552 5 6 Z" fill="rgb(88, 97, 116)"></path><path d="M 18 5 C 18.552 5 19 5.448 19 6 C 19 6.552 18.552 7 18 7 C 17.448 7 17 6.552 17 6 C 17 5.448 17.448 5 18 5 Z" fill="rgb(88, 97, 116)"></path><path d="M 5 18 C 5 17.448 5.448 17 6 17 L 14 17 C 14.552 17 15 17.448 15 18 L 15 18 C 15 18.552 14.552 19 14 19 L 6 19 C 5.448 19 5 18.552 5 18 Z" fill="rgb(88, 97, 116)"></path><path d="M 18 17 C 18.552 17 19 17.448 19 18 C 19 18.552 18.552 19 18 19 C 17.448 19 17 18.552 17 18 C 17 17.448 17.448 17 18 17 Z" fill="rgb(88, 97, 116)"></path></svg>