<svg xmlns="http://www.w3.org/2000/svg" width="20" height="20">
  <path d="M 11.024 0.768 C 10.88 0.651 10.692 0.602 10.51 0.636 L 0.51 2.511 C 0.214 2.566 -0 2.824 -0 3.125 L -0 16.875 C -0 17.175 0.214 17.433 0.51 17.488 L 10.51 19.363 C 10.548 19.371 10.586 19.375 10.625 19.375 C 10.769 19.375 10.911 19.325 11.024 19.231 C 11.167 19.112 11.25 18.936 11.25 18.75 L 11.25 1.25 C 11.25 1.063 11.167 0.887 11.024 0.768 Z M 10 17.996 L 1.25 16.356 L 1.25 3.643 L 10 2.003 Z" fill="rgb(88, 97, 116)"></path>
  <path d="M 19.375 3.125 L 10.625 3.125 C 10.28 3.125 10 3.405 10 3.75 C 10 4.095 10.28 4.375 10.625 4.375 L 18.75 4.375 L 18.75 15.625 L 10.625 15.625 C 10.28 15.625 10 15.905 10 16.25 C 10 16.595 10.28 16.875 10.625 16.875 L 19.375 16.875 C 19.72 16.875 20 16.595 20 16.25 L 20 3.75 C 20 3.405 19.72 3.125 19.375 3.125 Z" fill="rgb(88, 97, 116)"></path>
  <path d="M 13.125 5.625 L 10.625 5.625 C 10.28 5.625 10 5.905 10 6.25 C 10 6.595 10.28 6.875 10.625 6.875 L 13.125 6.875 C 13.47 6.875 13.75 6.595 13.75 6.25 C 13.75 5.905 13.47 5.625 13.125 5.625 Z M 13.125 8.125 L 10.625 8.125 C 10.28 8.125 10 8.405 10 8.75 C 10 9.095 10.28 9.375 10.625 9.375 L 13.125 9.375 C 13.47 9.375 13.75 9.095 13.75 8.75 C 13.75 8.405 13.47 8.125 13.125 8.125 Z M 13.125 10.625 L 10.625 10.625 C 10.28 10.625 10 10.905 10 11.25 C 10 11.595 10.28 11.875 10.625 11.875 L 13.125 11.875 C 13.47 11.875 13.75 11.595 13.75 11.25 C 13.75 10.905 13.47 10.625 13.125 10.625 Z M 13.125 13.125 L 10.625 13.125 C 10.28 13.125 10 13.405 10 13.75 C 10 14.095 10.28 14.375 10.625 14.375 L 13.125 14.375 C 13.47 14.375 13.75 14.095 13.75 13.75 C 13.75 13.405 13.47 13.125 13.125 13.125 Z M 16.875 5.625 L 15.625 5.625 C 15.28 5.625 15 5.905 15 6.25 C 15 6.595 15.28 6.875 15.625 6.875 L 16.875 6.875 C 17.22 6.875 17.5 6.595 17.5 6.25 C 17.5 5.905 17.22 5.625 16.875 5.625 Z M 16.875 8.125 L 15.625 8.125 C 15.28 8.125 15 8.405 15 8.75 C 15 9.095 15.28 9.375 15.625 9.375 L 16.875 9.375 C 17.22 9.375 17.5 9.095 17.5 8.75 C 17.5 8.405 17.22 8.125 16.875 8.125 Z M 16.875 10.625 L 15.625 10.625 C 15.28 10.625 15 10.905 15 11.25 C 15 11.595 15.28 11.875 15.625 11.875 L 16.875 11.875 C 17.22 11.875 17.5 11.595 17.5 11.25 C 17.5 10.905 17.22 10.625 16.875 10.625 Z M 16.875 13.125 L 15.625 13.125 C 15.28 13.125 15 13.405 15 13.75 C 15 14.095 15.28 14.375 15.625 14.375 L 16.875 14.375 C 17.22 14.375 17.5 14.095 17.5 13.75 C 17.5 13.405 17.22 13.125 16.875 13.125 Z M 8.596 12.088 L 4.221 7.088 C 3.991 6.827 3.597 6.802 3.339 7.03 C 3.079 7.257 3.052 7.652 3.28 7.911 L 7.655 12.911 C 7.773 13.047 7.945 13.125 8.125 13.125 C 8.271 13.125 8.417 13.073 8.537 12.97 C 8.797 12.742 8.824 12.348 8.596 12.088 Z" fill="rgb(88, 97, 116)"></path>
  <path d="M 8.509 6.382 C 8.236 6.168 7.844 6.22 7.631 6.491 L 3.256 12.116 C 3.045 12.388 3.094 12.782 3.366 12.993 C 3.476 13.079 3.611 13.125 3.75 13.125 C 3.935 13.125 4.12 13.042 4.243 12.885 L 8.618 7.26 C 8.83 6.986 8.781 6.593 8.509 6.382 Z" fill="rgb(88, 97, 116)"></path>
</svg>