<svg xmlns="http://www.w3.org/2000/svg" width="20" height="20">
  <path d="M 11.024 0.768 C 10.88 0.651 10.692 0.602 10.51 0.636 L 0.51 2.511 C 0.214 2.566 -0 2.824 -0 3.125 L -0 16.875 C -0 17.175 0.214 17.433 0.51 17.488 L 10.51 19.363 C 10.548 19.371 10.586 19.375 10.625 19.375 C 10.769 19.375 10.911 19.325 11.024 19.231 C 11.167 19.112 11.25 18.936 11.25 18.75 L 11.25 1.25 C 11.25 1.063 11.167 0.887 11.024 0.768 Z M 10 17.996 L 1.25 16.356 L 1.25 3.643 L 10 2.003 Z" fill="rgb(88, 97, 116)"></path>
  <path d="M 19.375 3.125 L 10.625 3.125 C 10.28 3.125 10 3.405 10 3.75 C 10 4.095 10.28 4.375 10.625 4.375 L 18.75 4.375 L 18.75 15.625 L 10.625 15.625 C 10.28 15.625 10 15.905 10 16.25 C 10 16.595 10.28 16.875 10.625 16.875 L 19.375 16.875 C 19.72 16.875 20 16.595 20 16.25 L 20 3.75 C 20 3.405 19.72 3.125 19.375 3.125 Z" fill="rgb(88, 97, 116)"></path>
  <path d="M 16.875 13.125 L 10.625 13.125 C 10.28 13.125 10 13.405 10 13.75 C 10 14.095 10.28 14.375 10.625 14.375 L 16.875 14.375 C 17.22 14.375 17.5 14.095 17.5 13.75 C 17.5 13.405 17.22 13.125 16.875 13.125 Z M 4.375 6.875 C 4.03 6.875 3.75 7.155 3.75 7.5 L 3.75 13.75 C 3.75 14.095 4.03 14.375 4.375 14.375 C 4.72 14.375 5 14.095 5 13.75 L 5 7.5 C 5 7.155 4.72 6.875 4.375 6.875 Z" fill="rgb(88, 97, 116)"></path>
  <path d="M 6.25 6.875 L 4.375 6.875 C 4.03 6.875 3.75 7.155 3.75 7.5 C 3.75 7.845 4.03 8.125 4.375 8.125 L 6.25 8.125 C 6.939 8.125 7.5 8.686 7.5 9.375 C 7.5 10.063 6.939 10.625 6.25 10.625 L 4.375 10.625 C 4.03 10.625 3.75 10.905 3.75 11.25 C 3.75 11.595 4.03 11.875 4.375 11.875 L 6.25 11.875 C 7.629 11.875 8.75 10.753 8.75 9.375 C 8.75 7.996 7.629 6.875 6.25 6.875 Z M 14.375 5.625 C 12.651 5.625 11.25 7.027 11.25 8.75 C 11.25 10.472 12.651 11.875 14.375 11.875 C 16.099 11.875 17.5 10.472 17.5 8.75 C 17.5 7.027 16.099 5.625 14.375 5.625 Z M 14.375 10.625 C 13.341 10.625 12.5 9.783 12.5 8.75 C 12.5 7.716 13.341 6.875 14.375 6.875 C 15.409 6.875 16.25 7.716 16.25 8.75 C 16.25 9.783 15.409 10.625 14.375 10.625 Z" fill="rgb(88, 97, 116)"></path>
  <path d="M 16.875 8.125 L 15 8.125 L 15 6.25 C 15 5.905 14.72 5.625 14.375 5.625 C 14.03 5.625 13.75 5.905 13.75 6.25 L 13.75 8.75 C 13.75 9.095 14.03 9.375 14.375 9.375 L 16.875 9.375 C 17.22 9.375 17.5 9.095 17.5 8.75 C 17.5 8.405 17.22 8.125 16.875 8.125 Z" fill="rgb(88, 97, 116)"></path>
</svg>