<svg xmlns="http://www.w3.org/2000/svg" width="20" height="20">
  <path d="M 11.024 0.768 C 10.88 0.651 10.692 0.602 10.51 0.636 L 0.51 2.511 C 0.214 2.566 -0 2.824 0 3.125 L 0 16.875 C 0 17.175 0.214 17.433 0.51 17.488 L 10.51 19.363 C 10.548 19.371 10.586 19.375 10.625 19.375 C 10.769 19.375 10.911 19.325 11.024 19.231 C 11.167 19.112 11.25 18.936 11.25 18.75 L 11.25 1.25 C 11.25 1.063 11.167 0.887 11.024 0.768 Z M 10 17.996 L 1.25 16.356 L 1.25 3.643 L 10 2.003 Z" fill="rgb(88, 97, 116)"></path>
  <path d="M 19.375 3.125 L 10.625 3.125 C 10.28 3.125 10 3.405 10 3.75 C 10 4.095 10.28 4.375 10.625 4.375 L 18.75 4.375 L 18.75 15.625 L 10.625 15.625 C 10.28 15.625 10 15.905 10 16.25 C 10 16.595 10.28 16.875 10.625 16.875 L 19.375 16.875 C 19.72 16.875 20 16.595 20 16.25 L 20 3.75 C 20 3.405 19.72 3.125 19.375 3.125 Z" fill="rgb(88, 97, 116)"></path>
  <path d="M 16.875 5.625 L 10.625 5.625 C 10.28 5.625 10 5.905 10 6.25 C 10 6.595 10.28 6.875 10.625 6.875 L 16.875 6.875 C 17.22 6.875 17.5 6.595 17.5 6.25 C 17.5 5.905 17.22 5.625 16.875 5.625 Z M 16.875 8.125 L 10.625 8.125 C 10.28 8.125 10 8.405 10 8.75 C 10 9.095 10.28 9.375 10.625 9.375 L 16.875 9.375 C 17.22 9.375 17.5 9.095 17.5 8.75 C 17.5 8.405 17.22 8.125 16.875 8.125 Z M 16.875 10.625 L 10.625 10.625 C 10.28 10.625 10 10.905 10 11.25 C 10 11.595 10.28 11.875 10.625 11.875 L 16.875 11.875 C 17.22 11.875 17.5 11.595 17.5 11.25 C 17.5 10.905 17.22 10.625 16.875 10.625 Z M 16.875 13.125 L 10.625 13.125 C 10.28 13.125 10 13.405 10 13.75 C 10 14.095 10.28 14.375 10.625 14.375 L 16.875 14.375 C 17.22 14.375 17.5 14.095 17.5 13.75 C 17.5 13.405 17.22 13.125 16.875 13.125 Z M 8.194 6.878 C 7.862 6.845 7.541 7.087 7.504 7.43 L 7.168 10.457 L 6.21 7.905 C 6.026 7.417 5.221 7.417 5.039 7.905 L 4.022 10.616 L 3.744 8.661 C 3.695 8.318 3.375 8.076 3.036 8.131 C 2.695 8.18 2.457 8.496 2.506 8.837 L 3.131 13.212 C 3.171 13.496 3.399 13.716 3.683 13.746 C 3.972 13.775 4.235 13.612 4.335 13.345 L 5.625 9.905 L 6.915 13.345 C 7.007 13.588 7.24 13.749 7.5 13.75 C 7.526 13.75 7.551 13.748 7.577 13.743 C 7.864 13.708 8.089 13.48 8.121 13.193 L 8.746 7.568 C 8.784 7.226 8.538 6.917 8.194 6.878 Z" fill="rgb(88, 97, 116)"></path>
</svg>